<svg xmlns="http://www.w3.org/2000/svg" viewBox="0 0 632 602" role="img" aria-label="Remotely Human rh monogram">
  <title>Remotely Human — rh monogram</title>
  <g transform="translate(0.000000,602.000000) scale(0.100000,-0.100000)" fill="#6C2BD9">
    <path d="M2457 6013 c-4 -3 -7 -1358 -7 -3010 l0 -3003 560 0 560 0 0 1099 c0
678 4 1149 10 1228 38 462 232 731 605 839 258 74 556 -11 703 -201 47 -61 99
-172 123 -260 21 -75 23 -111 30 -590 4 -280 8 -865 8 -1300 0 -434 0 -796 1
-803 0 -10 115 -12 558 -10 l557 3 0 1450 0 1450 -28 126 c-77 354 -210 592
-432 775 -66 54 -193 137 -236 153 -19 7 -52 21 -74 31 -272 119 -749 149
-1097 67 -39 -9 -48 -15 -48 -33 0 -17 -10 -25 -52 -39 -87 -28 -274 -131
-372 -204 -50 -38 -124 -103 -165 -145 -41 -41 -78 -73 -83 -70 -4 3 -8 556
-8 1230 l0 1224 -553 0 c-305 0 -557 -3 -560 -7z"/>
    <path d="M2210 4063 c-14 -2 -71 -13 -126 -24 -376 -74 -741 -293 -944 -568
l-55 -74 -5 314 -5 314 -535 0 -535 0 0 -2010 0 -2010 563 -3 c309 -1 563 -1
564 0 1 2 5 505 8 1118 6 1084 7 1118 27 1207 72 313 199 489 438 605 154 75
322 111 603 129 l192 13 0 498 0 498 -82 -1 c-46 -1 -94 -3 -108 -6z"/>
  </g>
</svg>
